<svg width="187" height="64" viewBox="0 0 187 64" fill="none" xmlns="http://www.w3.org/2000/svg">
<rect width="187" height="64" fill="black"/>
<path d="M24.9904 42.7487C24.4381 43.7053 24.7624 44.9423 25.7839 45.3625C27.5868 46.1041 29.5231 46.4897 31.4852 46.4904C34.1166 46.4913 36.7018 45.8 38.9815 44.4859C41.2612 43.1718 43.1551 41.2812 44.4731 39.0037C45.791 36.7263 46.4868 34.1423 46.4904 31.5109C46.494 28.8796 45.8054 26.2937 44.4936 24.0127C43.1819 21.7316 41.2932 19.8358 39.0171 18.5155C36.741 17.1951 34.1577 16.4967 31.5264 16.4904C29.5642 16.4857 27.6268 16.866 25.822 17.6026C24.7993 18.0201 24.4716 19.2562 25.0213 20.2143L25.991 21.9046C26.5407 22.8627 27.7612 23.1694 28.8165 22.8431C29.6859 22.5742 30.5945 22.4369 31.5121 22.4391C33.0999 22.4429 34.6587 22.8643 36.0321 23.6611C37.4056 24.4578 38.5452 25.6018 39.3368 26.9782C40.1283 28.3546 40.5438 29.915 40.5417 31.5028C40.5395 33.0906 40.1197 34.6498 39.3244 36.0241C38.5291 37.3983 37.3863 38.5392 36.0107 39.3321C34.6351 40.1251 33.0751 40.5422 31.4873 40.5417C30.5697 40.5413 29.6614 40.4015 28.7928 40.1303C27.7384 39.8011 26.517 40.1045 25.9647 41.0611L24.9904 42.7487Z" fill="white"/>
<path d="M58.325 40.975C60.775 40.975 62.7 39.05 62.7 36.425C62.7 33.8 60.775 31.875 58.325 31.875C55.875 31.875 53.95 33.8 53.95 36.425C53.95 39.05 55.875 40.975 58.325 40.975ZM49.225 36.425C49.225 31.525 53.25 27.5 58.325 27.5C63.4 27.5 67.425 31.525 67.425 36.425C67.425 41.325 63.4 45.35 58.325 45.35C53.25 45.35 49.225 41.325 49.225 36.425ZM71.0945 45V20.5H75.8195V30.3H75.9945C76.3445 29.775 76.7995 29.32 77.3245 28.9C78.2695 28.2 79.5645 27.5 81.4195 27.5C85.4795 27.5 89.1195 31.21 89.1195 36.425C89.1195 41.675 85.4795 45.35 81.4195 45.35C79.5645 45.35 78.2695 44.65 77.3245 43.95C76.7995 43.53 76.3445 43.075 75.9945 42.55H75.8195V45H71.0945ZM80.0195 40.975C82.4695 40.975 84.3945 39.05 84.3945 36.425C84.3945 33.8 82.4695 31.875 80.0195 31.875C77.5695 31.875 75.6445 33.8 75.6445 36.425C75.6445 39.05 77.5695 40.975 80.0195 40.975ZM102.249 45V42.9H102.074C101.689 43.355 101.269 43.775 100.779 44.125C99.9386 44.79 98.6436 45.35 96.9986 45.35C93.8486 45.35 91.7486 43.25 91.7486 40.45C91.7486 37.65 93.6386 35.515 96.8236 34.955L102.249 33.975C102.074 32.75 101.059 31.7 99.2736 31.7C98.0486 31.7 97.1036 32.155 96.4386 32.68C96.0536 32.96 95.7036 33.275 95.4236 33.625L92.6236 30.825C93.1136 30.23 93.7086 29.67 94.4086 29.18C95.6336 28.34 97.3486 27.5 99.6236 27.5C103.999 27.5 106.974 30.51 106.974 34.325V45H102.249ZM102.249 37.65V37.3L98.3986 38C97.1736 38.245 96.4736 38.875 96.4736 39.75C96.4736 40.835 97.1736 41.5 98.5736 41.5C100.674 41.5 102.249 39.925 102.249 37.65ZM121.15 45V42.9H120.975C120.59 43.355 120.17 43.775 119.68 44.125C118.84 44.79 117.545 45.35 115.9 45.35C112.75 45.35 110.65 43.25 110.65 40.45C110.65 37.65 112.54 35.515 115.725 34.955L121.15 33.975C120.975 32.75 119.96 31.7 118.175 31.7C116.95 31.7 116.005 32.155 115.34 32.68C114.955 32.96 114.605 33.275 114.325 33.625L111.525 30.825C112.015 30.23 112.61 29.67 113.31 29.18C114.535 28.34 116.25 27.5 118.525 27.5C122.9 27.5 125.875 30.51 125.875 34.325V45H121.15ZM121.15 37.65V37.3L117.3 38C116.075 38.245 115.375 38.875 115.375 39.75C115.375 40.835 116.075 41.5 117.475 41.5C119.575 41.5 121.15 39.925 121.15 37.65ZM131.485 39.05V32.575H128.51V28.2H130.085C131.38 28.2 132.01 27.5 132.01 26.1V22.95H136.21V28.2H140.06V32.575H136.21V38.35C136.21 39.925 137.085 40.8 138.485 40.8C139.01 40.8 139.465 40.73 139.85 40.625C140.06 40.59 140.235 40.52 140.41 40.45V44.825C140.13 44.93 139.815 45 139.5 45.105C138.94 45.245 138.135 45.35 137.26 45.35C133.76 45.35 131.485 43.11 131.485 39.05ZM151.806 40.975C154.256 40.975 156.181 39.05 156.181 36.425C156.181 33.8 154.256 31.875 151.806 31.875C149.356 31.875 147.431 33.8 147.431 36.425C147.431 39.05 149.356 40.975 151.806 40.975ZM142.706 36.425C142.706 31.525 146.731 27.5 151.806 27.5C156.881 27.5 160.906 31.525 160.906 36.425C160.906 41.325 156.881 45.35 151.806 45.35C146.731 45.35 142.706 41.325 142.706 36.425Z" fill="white"/>
<circle cx="31.5" cy="31.5" r="4.5" fill="#0945EC"/>
</svg>
